<svg xmlns="http://www.w3.org/2000/svg" width="68" height="67" viewBox="0 0 68 67"><defs><style>.a,.c{fill:#fff;}.a{stroke:#033469;stroke-miterlimit:10;stroke-width:5px;}.b{fill:#033469;}</style></defs><g transform="translate(2.999 2.766)"><ellipse class="a" cx="31.5" cy="31" rx="31.5" ry="31" transform="translate(-0.499 -0.266)"/><g transform="translate(10.132 9.48)"><path class="b" d="M712.4,60.313a4.935,4.935,0,0,1,3.2,0c1.441.63,16.885,7.114,16.885,7.114s2.116.405,2.657,3.827-4.007,27.376-19.406,33.185a5.566,5.566,0,0,1-3.332.18c-1.711-.5-19.5-12.923-19.316-33.275,0,0-.36-2.341,2.521-3.962S712.4,60.313,712.4,60.313Z" transform="translate(-693.071 -60.033)"/><path class="c" d="M899,116.9v33.14s15.451-7.114,15.5-26.7Z" transform="translate(-877.943 -111.082)"/></g></g></svg>