<svg xmlns="http://www.w3.org/2000/svg" width="66" height="66" viewBox="0 0 66 66"><defs><style>.a{fill:#fff;stroke-width:4px;}.a,.b{stroke:#033469;}.b,.c{fill:#033469;}.b{stroke-miterlimit:10;stroke-width:2px;}.d{stroke:none;}.e{fill:none;}</style></defs><g class="a"><circle class="d" cx="33" cy="33" r="33"/><circle class="e" cx="33" cy="33" r="31"/></g><g transform="translate(16.144 16.85)"><circle class="b" cx="7.634" cy="7.634" r="7.634" transform="translate(5.599 0)"/><path class="b" d="M27.287,425.145v2.567a2.785,2.785,0,0,0,2.816,2.794c2.794.045,20.669,0,20.669,0s2.953-.25,2.885-2.862c-.014-.535.031-1.5,0-2.544-.228-8.018-8.921-6.787-8.921-6.787s-2.3,1.584-4.076,1.443a9.211,9.211,0,0,1-4.533-1.42C34.993,417.835,27.014,418.513,27.287,425.145Z" transform="translate(-27.28 -400.307)"/><path class="c" d="M387.763,282.735v3.748h-3.748a.953.953,0,0,0-.931.931v1.931a.909.909,0,0,0,.909.909h3.77v3.77s.136.977.954.977h1.908a.9.9,0,0,0,.943-.943c.034-.988,0-3.8,0-3.8h3.714s.954,0,.954-.886V287.46a.876.876,0,0,0-.931-.931h-3.725v-3.793s-.079-.959-.959-.959h-1.9A.922.922,0,0,0,387.763,282.735Z" transform="translate(-358.615 -274.205)"/></g></svg>